<svg width="55" height="54" viewBox="0 0 55 54" fill="none" xmlns="http://www.w3.org/2000/svg">
<path d="M43.884 0H11.1085C4.96934 0 0 4.85891 0 10.8616V42.9161C0 48.9115 4.96934 53.7715 11.1085 53.7715H43.8915C50.0231 53.7715 55 48.9126 55 42.9098V10.8616C54.9925 4.85996 50.0231 0 43.884 0Z" fill="url(#paint0_linear_16_204)"/>
<path d="M27.2637 12.3542L28.3777 10.473C29.0652 9.29771 30.597 8.90068 31.8012 9.5729C33.0032 10.2451 33.4104 11.745 32.7218 12.9204L21.9914 31.0809H29.7516C32.2685 31.0809 33.6768 33.9714 32.5843 35.9734H9.8302C8.44124 35.9734 7.32727 34.8842 7.32727 33.5261C7.32727 32.168 8.44124 31.0788 9.8302 31.0788H16.2089L24.3762 17.2394L21.8271 12.9109C21.1396 11.7356 21.5456 10.2483 22.7477 9.56345C23.9497 8.89123 25.4708 9.28826 26.1712 10.4636L27.2637 12.3542ZM17.6118 38.4932L15.2056 42.5727C14.5181 43.7481 12.9841 44.1451 11.7821 43.4729C10.58 42.8006 10.174 41.3028 10.8615 40.1254L12.649 37.1004C14.6696 36.4902 16.312 36.9607 17.6118 38.4932ZM38.3292 31.0935H44.839C46.228 31.0935 47.3419 32.1827 47.3419 33.5408C47.3419 34.8989 46.228 35.9881 44.839 35.9881H41.2221L43.6616 40.1286C44.3491 41.3039 43.9431 42.7912 42.741 43.476C41.539 44.1482 40.0179 43.7512 39.3175 42.5759C35.2065 35.6058 32.1213 30.3897 30.0717 26.9152C27.9759 23.3787 29.4734 19.8316 30.9515 18.6279C32.5972 21.3809 35.0507 25.5424 38.3292 31.0935Z" fill="white"/>
<defs>
<linearGradient id="paint0_linear_16_204" x1="27.5013" y1="0.000220573" x2="27.5013" y2="53.7696" gradientUnits="userSpaceOnUse">
<stop stop-color="#0ED4FC"/>
<stop offset="1" stop-color="#0C57EF"/>
</linearGradient>
</defs>
</svg>
