<svg width="20" height="20" viewBox="0 0 20 20" fill="none" xmlns="http://www.w3.org/2000/svg">
<path fill-rule="evenodd" clip-rule="evenodd" d="M0.487487 0.508303C0.799719 0.196165 1.22314 0.0208154 1.66464 0.0208154C2.10613 0.0208154 2.52955 0.196165 2.84178 0.508303L9.98959 7.65611L17.1374 0.508303C17.291 0.349279 17.4747 0.222436 17.6778 0.135175C17.881 0.0479149 18.0995 0.00198396 18.3205 6.28652e-05C18.5416 -0.00185823 18.7609 0.0402685 18.9655 0.123986C19.1701 0.207703 19.356 0.331334 19.5123 0.487664C19.6687 0.643995 19.7923 0.829895 19.876 1.03452C19.9597 1.23914 20.0019 1.45838 19.9999 1.67946C19.998 1.90054 19.9521 2.11902 19.8648 2.32215C19.7776 2.52529 19.6507 2.70901 19.4917 2.8626L12.3439 10.0104L19.4917 17.1582C19.795 17.4722 19.9628 17.8928 19.959 18.3294C19.9552 18.7659 19.7801 19.1835 19.4714 19.4922C19.1627 19.8009 18.7451 19.976 18.3086 19.9798C17.872 19.9836 17.4514 19.8158 17.1374 19.5125L9.98959 12.3647L2.84178 19.5125C2.52776 19.8158 2.10718 19.9836 1.67063 19.9798C1.23407 19.976 0.816472 19.8009 0.507769 19.4922C0.199066 19.1835 0.0239602 18.7659 0.0201666 18.3294C0.0163731 17.8928 0.184196 17.4722 0.487487 17.1582L7.63529 10.0104L0.487487 2.8626C0.175349 2.55037 0 2.12695 0 1.68545C0 1.24396 0.175349 0.820534 0.487487 0.508303Z" fill="#EBFFFF"/>
</svg>
