<svg width="27" height="27" viewBox="0 0 27 27" fill="none" xmlns="http://www.w3.org/2000/svg">
<path fill-rule="evenodd" clip-rule="evenodd" d="M27 13.5C27 6.04474 20.9552 0 13.5 0C6.04474 0 0 6.04474 0 13.5C0 20.2376 4.93607 25.8229 11.3908 26.8369V17.4033H7.96217V13.5H11.3908V10.5251C11.3908 7.14197 13.407 5.27199 16.4901 5.27199C17.9671 5.27199 19.5124 5.53586 19.5124 5.53586V8.85823H17.8095C16.1332 8.85823 15.6092 9.89859 15.6092 10.9674V13.4999H19.3528L18.7549 17.4032H15.6091V26.8367C22.0639 25.8247 26.9998 20.2395 26.9998 13.4999L27 13.5Z" fill="#040404"/>
<path fill-rule="evenodd" clip-rule="evenodd" d="M18.7549 17.4032L19.353 13.4999H15.6093V10.9674C15.6093 9.90047 16.1313 8.85823 17.8096 8.85823H19.5126V5.53586C19.5126 5.53586 17.9673 5.27197 16.4902 5.27197C13.4071 5.27197 11.391 7.14011 11.391 10.5251V13.5H7.96228V17.4033H11.391V26.8369C12.0782 26.9449 12.7825 27 13.5001 27C14.2178 27 14.9221 26.943 15.6093 26.8369V17.4033H18.7551L18.7549 17.4032Z" fill="white"/>
</svg>
