<svg width="27" height="27" viewBox="0 0 27 27" fill="none" xmlns="http://www.w3.org/2000/svg">
<path d="M13.5118 6.62119C13.2744 6.62119 13.0395 6.6333 12.8081 6.657C12.5768 6.6807 12.3486 6.71582 12.1243 6.76191C11.9 6.80801 11.6797 6.86511 11.4638 6.93249L10.8301 7.16516L10.2268 7.45648L9.65747 7.80291L9.12552 8.2008L8.63464 8.64669L8.18832 9.13714L7.78999 9.66849L7.44314 10.2373L7.15165 10.8399C7.06403 11.046 6.98609 11.2574 6.91862 11.4731C6.85116 11.6888 6.79407 11.909 6.74787 12.1331C6.70169 12.3571 6.66657 12.585 6.64277 12.8162C6.619 13.0474 6.60706 13.282 6.60706 13.5192C6.60706 13.7564 6.61917 13.9909 6.64277 14.2221C6.66627 14.4515 6.70133 14.6796 6.74787 14.9054C6.79407 15.1303 6.85116 15.3496 6.91862 15.5654C6.98609 15.7811 7.06394 15.9923 7.15165 16.1985L7.44314 16.8012L7.78999 17.3699L8.18832 17.9013L8.63464 18.3918L9.12552 18.8377L9.65747 19.2356L10.2268 19.5819L10.8301 19.8733L11.4638 20.106L12.1243 20.2766C12.3503 20.3231 12.5786 20.3582 12.8081 20.3816C13.0419 20.4054 13.2768 20.4174 13.5118 20.4172C13.7492 20.4172 13.9841 20.4052 14.2154 20.3816C14.4449 20.3582 14.6732 20.3231 14.8992 20.2766L15.5598 20.106L16.1935 19.8733L16.7967 19.5819L17.3661 19.2356L17.8981 18.8377L18.3891 18.3918L18.8354 17.9013L19.2337 17.3699L19.5806 16.8012L19.8721 16.1985L20.105 15.5654C20.1725 15.3496 20.2297 15.1294 20.2758 14.9054L20.3808 14.2221C20.4046 13.9909 20.4166 13.7563 20.4166 13.5191C20.4166 13.2819 20.4046 13.0473 20.3808 12.8161C20.3574 12.5868 20.3223 12.3588 20.2758 12.133C20.2297 11.9081 20.1725 11.6888 20.105 11.473L19.8721 10.8398L19.5806 10.2372L19.2337 9.6684L18.8354 9.13704L18.3891 8.6466L17.8981 8.20071L17.3661 7.80283L16.7967 7.45641L16.1935 7.16509L15.5598 6.9324L14.8992 6.76183L14.2154 6.65691C13.9816 6.63304 13.7468 6.62117 13.5118 6.62119ZM13.5118 9.00212C13.6688 9.00212 13.8237 9.0099 13.9763 9.02529L14.4261 9.09338L14.8606 9.20408L15.2766 9.3552L15.6722 9.54463L16.0441 9.76995L16.3918 10.0292L16.7124 10.32L17.0034 10.6402L17.2629 10.9876L17.4885 11.36L17.678 11.7553C17.7349 11.8906 17.7854 12.0293 17.8293 12.171C17.8733 12.3128 17.9102 12.4577 17.94 12.6053C17.9699 12.7528 17.9919 12.903 18.0081 13.0555L18.0313 13.5196C18.0313 13.6764 18.0235 13.8313 18.0081 13.9838C17.9927 14.1364 17.9701 14.2866 17.94 14.4341C17.91 14.5815 17.873 14.7264 17.8293 14.8683L17.678 15.284L17.4885 15.6793L17.2629 16.0517L17.0034 16.3991L16.7124 16.7193L16.3918 17.0101L16.0441 17.2694L15.6722 17.4947L15.2766 17.6841L14.8606 17.8352L14.4261 17.9459L13.9763 18.0139C13.8219 18.0294 13.6669 18.0371 13.5117 18.0371C13.3565 18.0371 13.2014 18.0294 13.0471 18.0139L12.5973 17.9459C12.4496 17.916 12.3046 17.879 12.1627 17.8352L11.7467 17.6841L11.3511 17.4947L10.9792 17.2694L10.6314 17.0101L10.3109 16.7193L10.0198 16.3991L9.76032 16.0517L9.53474 15.6793L9.34531 15.284L9.19394 14.8683L9.08322 14.4341L9.01516 13.9838C8.99967 13.8296 8.99192 13.6747 8.99196 13.5196C8.99192 13.3646 8.99967 13.2097 9.01516 13.0555C9.03046 12.903 9.0532 12.7527 9.08322 12.6053C9.11294 12.4588 9.14991 12.3139 9.19403 12.1711L9.3454 11.7554L9.53483 11.3601L9.76041 10.9877L10.0199 10.6403L10.311 10.3201L10.6315 10.0293L10.9792 9.77004L11.3512 9.54471L11.7467 9.35528C11.8829 9.29811 12.0218 9.24767 12.1629 9.20417L12.5974 9.09345C12.7451 9.06353 12.8954 9.04069 13.0472 9.02539C13.2016 9.00992 13.3566 9.0021 13.5118 9.00212Z" fill="#040404"/>
<path d="M20.6967 4.65918C20.6419 4.65918 20.5872 4.66195 20.5326 4.66749C20.4781 4.673 20.4239 4.68125 20.3701 4.69222C20.3164 4.70319 20.2632 4.71684 20.2109 4.73313C20.1584 4.74944 20.107 4.76838 20.0564 4.78987C20.0059 4.81139 19.9566 4.83545 19.9084 4.86192C19.8602 4.88836 19.8136 4.9172 19.7684 4.94834C19.723 4.9795 19.6793 5.01294 19.6375 5.0485C19.5955 5.08404 19.5554 5.12165 19.5171 5.16121C19.4791 5.20079 19.4429 5.24229 19.4087 5.2855C19.3746 5.32874 19.3427 5.37365 19.3131 5.42009C19.2835 5.4665 19.2563 5.51437 19.2314 5.56351C19.2066 5.61269 19.1841 5.66309 19.1642 5.71454C19.1444 5.76595 19.1271 5.81836 19.1123 5.87152C19.0977 5.92469 19.0857 5.97856 19.0765 6.03294C19.0671 6.08729 19.0606 6.14208 19.0566 6.19711C19.0538 6.23607 19.0525 6.27515 19.0525 6.31422C19.0525 6.36942 19.0551 6.42459 19.0607 6.47952C19.0662 6.53442 19.0744 6.589 19.0853 6.64308C19.0962 6.69715 19.1097 6.75065 19.1258 6.80335C19.1421 6.85608 19.1609 6.90796 19.1822 6.95879C19.2036 7.00964 19.2274 7.05939 19.2539 7.10784C19.2801 7.15627 19.3088 7.20335 19.3397 7.24891C19.3707 7.29444 19.4039 7.33837 19.4391 7.38055C19.4746 7.42278 19.5119 7.4632 19.5512 7.50166C19.5906 7.5401 19.6317 7.57653 19.6748 7.61082C19.7177 7.64514 19.7624 7.67725 19.8085 7.70709C19.8546 7.73692 19.9022 7.7644 19.951 7.78944C19.9999 7.81449 20.05 7.83706 20.101 7.85707C20.1522 7.87707 20.2041 7.89447 20.257 7.90923C20.3099 7.92397 20.3633 7.93604 20.4173 7.94538C20.4713 7.95477 20.5259 7.96145 20.5804 7.96537C20.6192 7.96814 20.6581 7.96951 20.6969 7.96953C20.7516 7.96953 20.8066 7.96679 20.8611 7.9613C20.9155 7.95579 20.9699 7.94754 21.0235 7.93657C21.0773 7.92562 21.1304 7.91195 21.1829 7.89565C21.2352 7.87934 21.2867 7.8604 21.3372 7.83892C21.3876 7.81741 21.4371 7.79339 21.4851 7.76694C21.5333 7.74048 21.58 7.7116 21.6254 7.68044C21.6706 7.6493 21.7142 7.6159 21.7562 7.58037C21.7981 7.5448 21.8382 7.50717 21.8764 7.46757C21.9147 7.42799 21.9509 7.3865 21.9848 7.34328C22.0189 7.30004 22.0508 7.25514 22.0804 7.20869C22.1101 7.16227 22.1374 7.11436 22.1622 7.0652C22.1871 7.016 22.2096 6.9656 22.2295 6.91417C22.2494 6.86274 22.2666 6.81035 22.2812 6.75717C22.2959 6.70402 22.3079 6.65015 22.3172 6.59577C22.3266 6.54142 22.3332 6.48661 22.3369 6.4316C22.3397 6.39262 22.3412 6.35356 22.3412 6.31449C22.3412 6.2593 22.3384 6.20416 22.333 6.14926C22.3276 6.09436 22.3193 6.03978 22.3084 5.9857C22.2976 5.93163 22.2839 5.87814 22.2677 5.82543C22.2514 5.7727 22.2327 5.72082 22.2113 5.66999C22.1899 5.61914 22.1661 5.5694 22.1399 5.52095C22.1136 5.47252 22.0849 5.42544 22.054 5.37987C22.0229 5.33431 21.9897 5.29036 21.9544 5.24814C21.919 5.20593 21.8817 5.1655 21.8425 5.12705C21.8031 5.08861 21.7619 5.05218 21.7189 5.01789C21.676 4.98359 21.6314 4.95149 21.5852 4.9217C21.5391 4.89187 21.4915 4.86438 21.4426 4.83935C21.3936 4.8143 21.3436 4.79172 21.2926 4.77172C21.2416 4.75171 21.1894 4.73431 21.1366 4.71955C21.0839 4.70478 21.0302 4.69269 20.9762 4.68331C20.9222 4.67395 20.8679 4.6673 20.8131 4.66342C20.7743 4.66064 20.7355 4.65918 20.6967 4.65918Z" fill="#040404"/>
<path d="M12.2025 0.0241774C11.4516 0.0229663 10.7814 0.0260799 10.1794 0.0345566L8.56532 0.0778054C8.08715 0.0985646 7.6647 0.125636 7.2855 0.160668C7.0959 0.17814 6.91702 0.197689 6.74748 0.219227C6.58614 0.239561 6.42527 0.263239 6.26492 0.290242C6.11223 0.316192 5.96735 0.344216 5.82843 0.374662C5.68953 0.40511 5.55684 0.437979 5.42882 0.47327C5.30368 0.50778 5.1795 0.545739 5.05646 0.587102C4.93588 0.627755 4.81824 0.670832 4.70207 0.716848C4.46973 0.808882 4.24312 0.912157 4.00974 1.02789C3.83017 1.11698 3.66427 1.2072 3.50668 1.30269C3.34908 1.39819 3.19978 1.49904 3.0536 1.6089C2.90306 1.72258 2.75795 1.84329 2.61879 1.97064C2.47329 2.10314 2.3247 2.24889 2.17029 2.41177C1.97628 2.6153 1.8077 2.80507 1.65805 2.99129C1.58323 3.08437 1.51317 3.17641 1.44717 3.26896C1.38191 3.36016 1.31951 3.4534 1.26008 3.5485C1.20126 3.6428 1.14556 3.73882 1.09227 3.83759C1.03816 3.93807 0.987019 4.04013 0.938914 4.14361C0.84048 4.35502 0.74862 4.58268 0.656933 4.83682C0.588913 5.02467 0.528004 5.21506 0.474336 5.40751C0.419584 5.60422 0.370887 5.81 0.327463 6.03254C0.284042 6.2551 0.246156 6.49445 0.212854 6.75912C0.176969 7.04926 0.148301 7.34024 0.126876 7.6318C0.102657 7.95235 0.0825897 8.3051 0.0661551 8.6977L0.0272314 10.0031L0.00629893 11.5944L0.000244141 13.5179L0.0179761 16.3149L0.0733345 18.4341L0.115978 19.2618L0.16926 19.9479C0.186341 20.1328 0.207711 20.3171 0.233355 20.501C0.256708 20.6643 0.281794 20.8072 0.308781 20.931C0.36354 21.1824 0.428292 21.4316 0.502881 21.678C0.5743 21.9138 0.655973 22.1463 0.747668 22.3751C0.837799 22.5991 0.936405 22.8151 1.04366 23.0231C1.15092 23.231 1.26683 23.4309 1.39138 23.6229C1.51594 23.8147 1.64915 23.9988 1.79135 24.1751C1.93338 24.3513 2.08447 24.5199 2.244 24.6806C2.40375 24.8415 2.57225 24.9945 2.74983 25.14C2.9295 25.2871 3.11628 25.4255 3.30947 25.5543C3.48877 25.6741 3.66618 25.784 3.84489 25.8847C4.02358 25.9856 4.20384 26.0769 4.38913 26.1601C4.5744 26.2432 4.76435 26.318 4.96278 26.3853C5.1612 26.4526 5.36793 26.5125 5.58643 26.5655C5.80492 26.6188 6.0362 26.6653 6.281 26.706C6.52578 26.7466 6.78744 26.7815 7.067 26.8115C7.34657 26.8415 7.6448 26.8663 7.96528 26.8871C8.28575 26.9079 8.62828 26.9244 8.99632 26.9377C9.56488 26.9583 10.4255 26.9703 11.418 26.975L14.6309 26.9685L17.6734 26.9259L18.8303 26.8933L19.5838 26.8546C19.7456 26.8413 19.9039 26.8258 20.0567 26.8076C20.2095 26.7894 20.3601 26.7686 20.5069 26.7448C20.6535 26.7211 20.797 26.6947 20.9378 26.6653C21.0771 26.6362 21.2156 26.6038 21.3533 26.5681C21.4896 26.5335 21.624 26.4941 21.7571 26.4523C21.8901 26.4106 22.0219 26.3655 22.1528 26.3169C22.2844 26.2681 22.4147 26.2162 22.5439 26.1613C22.6738 26.1058 22.8036 26.0467 22.9339 25.9839C23.134 25.8875 23.295 25.8071 23.4364 25.7287C23.5695 25.6558 23.6976 25.5742 23.82 25.4844C23.9408 25.3955 24.0608 25.2943 24.1991 25.1668C24.3375 25.0393 24.4945 24.8857 24.6885 24.6915C24.8593 24.5208 25.0031 24.3725 25.1273 24.2377C25.2514 24.1029 25.356 23.9816 25.4477 23.8646C25.5351 23.7536 25.6165 23.6381 25.6916 23.5185C25.765 23.4016 25.8325 23.2803 25.9011 23.1459C26.0046 22.9436 26.0966 22.7561 26.179 22.5751C26.259 22.401 26.3321 22.2234 26.3981 22.0434C26.4632 21.8647 26.5196 21.683 26.5671 21.4989C26.6158 21.3095 26.6578 21.1095 26.6942 20.8901C26.7304 20.6707 26.7611 20.432 26.7878 20.1654C26.8144 19.899 26.8371 19.6042 26.857 19.2733L26.9098 18.162L26.955 16.78L26.9875 15.2404L26.9998 13.6305L26.971 10.4686L26.9323 9.05234L26.8796 7.83637L26.8138 6.88835C26.79 6.62454 26.7641 6.41677 26.737 6.27629C26.7066 6.12108 26.6728 5.9666 26.6355 5.81292C26.5991 5.66341 26.5592 5.5148 26.5157 5.36722C26.4733 5.22342 26.4272 5.08074 26.3775 4.9393C26.3284 4.79962 26.2763 4.66285 26.2217 4.52905C26.1673 4.39524 26.1083 4.26455 26.047 4.13662C25.9855 4.00869 25.9211 3.88387 25.8536 3.7619C25.786 3.63995 25.7156 3.52102 25.642 3.40501C25.5685 3.28902 25.4918 3.17596 25.4119 3.06594C25.3326 2.95627 25.2497 2.84911 25.1636 2.7446C25.078 2.64069 24.9891 2.53949 24.897 2.44117C24.8051 2.34299 24.7101 2.24774 24.6122 2.15557C24.5141 2.06335 24.4133 1.97409 24.3092 1.88776C24.2046 1.80115 24.0975 1.71782 23.9876 1.63787C23.8768 1.55711 23.7636 1.47975 23.6479 1.40589C23.5307 1.33098 23.4115 1.25956 23.29 1.19172C23.1666 1.12275 23.041 1.05733 22.9138 0.995542C22.7025 0.892869 22.5071 0.801789 22.3155 0.721001C22.1269 0.640822 21.9347 0.569612 21.7395 0.507611C21.5432 0.445764 21.3388 0.392743 21.114 0.346985C20.889 0.301228 20.6438 0.263083 20.3663 0.230645C20.0888 0.19821 19.7788 0.172001 19.4243 0.150204C19.0699 0.128407 18.6712 0.111279 18.2159 0.0974394L16.6688 0.062841L14.7108 0.0397462L12.2034 0.0243489L12.2025 0.0241774ZM13.5047 2.40303L17.1206 2.42362L18.4847 2.4499C18.8603 2.46046 19.147 2.47284 19.315 2.4871C19.534 2.50554 19.7423 2.52862 19.9418 2.55631C20.133 2.58273 20.3235 2.61558 20.5125 2.65482C20.6942 2.69289 20.8675 2.73612 21.0334 2.78491C21.1991 2.8337 21.3576 2.88837 21.5095 2.94882C21.6615 3.00929 21.8068 3.0758 21.9467 3.14864C22.0855 3.22092 22.2203 3.30046 22.3506 3.38694C22.4803 3.473 22.6054 3.56574 22.7269 3.66564C22.8482 3.76554 22.966 3.87262 23.0809 3.98714C23.2024 4.10799 23.3143 4.23106 23.4175 4.35804C23.5202 4.48424 23.6155 4.6165 23.7023 4.75411C23.7902 4.89369 23.8693 5.03857 23.9395 5.18789C24.0111 5.34014 24.0754 5.50102 24.1331 5.67202C24.1911 5.84304 24.2425 6.02476 24.288 6.21895C24.3358 6.42483 24.3758 6.63243 24.408 6.84131C24.4425 7.06274 24.4721 7.29888 24.4973 7.5517C24.5222 7.80453 24.543 8.07415 24.5601 8.36262C24.5738 8.594 24.5858 8.89934 24.5959 9.25994L24.6212 10.4895L24.6405 13.5013L24.6186 16.5103L24.5921 17.7363L24.5556 18.628C24.5305 19.0456 24.5038 19.3966 24.472 19.7021C24.456 19.8549 24.4386 19.9963 24.4195 20.1288C24.4015 20.2541 24.3801 20.3788 24.3555 20.5029C24.333 20.6161 24.307 20.7286 24.2771 20.8404C24.2488 20.9467 24.2168 21.0523 24.1813 21.1567C24.1455 21.2615 24.1067 21.3652 24.0647 21.4676C24.0203 21.576 23.9734 21.683 23.9241 21.7891C23.8802 21.8838 23.8341 21.9761 23.7853 22.0657C23.7371 22.1546 23.6858 22.2416 23.6318 22.3269C23.5781 22.4115 23.5219 22.4936 23.463 22.5731C23.4045 22.6522 23.3432 22.7293 23.2791 22.8041C23.2153 22.8787 23.1488 22.9507 23.0796 23.0205C23.0104 23.09 22.9386 23.1571 22.8641 23.222C22.7899 23.2869 22.7126 23.3493 22.6328 23.4093C22.5531 23.4693 22.4704 23.5269 22.3851 23.582C22.2996 23.6373 22.2116 23.6902 22.1207 23.7408C22.0298 23.7913 21.936 23.8395 21.8396 23.8854C21.7414 23.9321 21.642 23.9758 21.5411 24.0165C21.4371 24.0585 21.3319 24.0975 21.2256 24.1336C21.0092 24.2073 20.7812 24.272 20.541 24.3277C20.2909 24.3856 20.0383 24.4329 19.7841 24.4695C19.6862 24.4837 19.4616 24.4972 19.1398 24.5096L17.9137 24.5437L14.4374 24.5889L10.7988 24.5945L9.36982 24.5793L8.44196 24.5505L7.75777 24.5023C7.54533 24.4845 7.34777 24.4646 7.16267 24.4419C6.97757 24.4194 6.80518 24.3943 6.64299 24.3658C6.4893 24.3393 6.33654 24.3075 6.18498 24.2707C6.0468 24.2371 5.91002 24.198 5.775 24.1533C5.64482 24.11 5.52033 24.0624 5.39925 24.0101C5.27814 23.9578 5.1605 23.9004 5.04399 23.8378C4.92748 23.7751 4.81218 23.7073 4.69558 23.633C4.60762 23.5771 4.52259 23.5205 4.44077 23.4607C4.35894 23.4007 4.27987 23.3409 4.20377 23.2783C4.12764 23.2156 4.05455 23.1511 3.98405 23.0848C3.91402 23.0186 3.84641 22.95 3.78131 22.8791C3.71643 22.8082 3.65441 22.7355 3.5949 22.6601C3.53516 22.5843 3.47823 22.5063 3.42425 22.4265C3.36945 22.3453 3.3176 22.2622 3.26882 22.1775C3.2195 22.0918 3.17263 22.0033 3.12808 21.9118C3.08278 21.8188 3.04052 21.7243 3.00137 21.6285C2.96158 21.5308 2.92385 21.4301 2.8884 21.3262C2.81747 21.1181 2.7552 20.8966 2.70105 20.6606C2.6469 20.4245 2.6007 20.1736 2.5616 19.9063C2.52251 19.6391 2.49103 19.3556 2.46594 19.0545C2.44743 18.8326 2.43273 18.4871 2.42148 18.0511L2.39795 16.5006L2.4066 12.5481L2.47468 8.77132L2.52658 7.44065L2.55598 7.00079C2.5662 6.88334 2.57675 6.79632 2.58755 6.74407C2.6232 6.5722 2.65908 6.41227 2.69619 6.26255C2.73086 6.12129 2.76943 5.98104 2.81184 5.84191C2.85215 5.7106 2.89462 5.5876 2.94003 5.47109C2.98382 5.35822 3.03262 5.24737 3.0863 5.13886C3.13871 5.03334 3.19503 4.93229 3.25618 4.83395C3.31734 4.7356 3.38334 4.6402 3.4553 4.54531C3.52727 4.45042 3.60476 4.35674 3.6891 4.26177C3.77343 4.1668 3.86452 4.07088 3.9633 3.97201C4.07842 3.85623 4.19829 3.74527 4.3226 3.63942C4.44 3.53956 4.5624 3.44575 4.68935 3.3584C4.81417 3.27189 4.9422 3.19492 5.07549 3.12415C5.20878 3.05341 5.34735 2.98947 5.49309 2.93197C5.63883 2.87444 5.79195 2.82297 5.95412 2.77627C6.12452 2.72847 6.29679 2.68769 6.47051 2.65404C6.65319 2.61824 6.84722 2.587 7.05437 2.55976C7.26153 2.53252 7.48192 2.50899 7.71755 2.48857C7.8819 2.47439 8.16508 2.46175 8.53798 2.45112L9.89512 2.42431L13.5054 2.40224L13.5047 2.40303Z" fill="#040404"/>
</svg>
