<svg width="32" height="27" viewBox="0 0 32 27" fill="none" xmlns="http://www.w3.org/2000/svg">
<mask id="mask0_16_277" style="mask-type:luminance" maskUnits="userSpaceOnUse" x="0" y="0" width="32" height="27">
<path d="M31.982 0H0V27H31.982V0Z" fill="white"/>
</mask>
<g mask="url(#mask0_16_277)">
<path d="M30.4125 25.2573C30.4812 25.258 30.5492 25.2447 30.6124 25.2183C30.6757 25.1919 30.7326 25.1529 30.78 25.1037C30.8273 25.0544 30.8641 24.9963 30.8877 24.9324C30.9114 24.8686 30.9214 24.8007 30.9175 24.7329C30.9175 24.3609 30.691 24.1831 30.2259 24.1831H29.4746V26.1307H29.7573V25.2817H30.1044L30.1123 25.2922L30.6512 26.1307H30.9534L30.3736 25.2627L30.4125 25.2573ZM30.0856 25.0623H29.7581V24.404H30.1733C30.3878 24.404 30.6325 24.4387 30.6325 24.7167C30.6325 25.0366 30.385 25.0623 30.0839 25.0623" fill="#040404"/>
<path d="M23.0417 22.8166H19.0347V16.6029C19.0347 15.1212 19.008 13.2138 16.9507 13.2138C14.8638 13.2138 14.5445 14.8281 14.5445 16.495V22.8163H10.5375V10.0383H14.3842V11.7845H14.438C14.823 11.1327 15.3793 10.5965 16.0476 10.2331C16.7159 9.86959 17.4714 9.69242 18.2333 9.72044C22.2945 9.72044 23.0434 12.3656 23.0434 15.8069L23.0417 22.8166ZM6.0164 8.29161C5.5565 8.29171 5.10689 8.15674 4.72447 7.90379C4.34202 7.65085 4.04395 7.2913 3.86787 6.87059C3.69181 6.44987 3.64567 5.98692 3.73531 5.54026C3.82494 5.09359 4.04633 4.68327 4.37148 4.3612C4.69661 4.03911 5.11089 3.81976 5.56194 3.73082C6.01299 3.64189 6.48051 3.68742 6.90543 3.86161C7.33035 4.03581 7.69355 4.33086 7.94912 4.70948C8.2047 5.08808 8.34117 5.53324 8.34124 5.98864C8.3413 6.29102 8.2812 6.59044 8.16439 6.86982C8.04758 7.14921 7.87637 7.40307 7.66049 7.61691C7.44462 7.83077 7.1883 8.00042 6.90618 8.11619C6.62409 8.23195 6.32176 8.29156 6.0164 8.29161ZM8.01984 22.8166H4.00876V10.0383H8.01984V22.8166ZM25.0393 0.00182443H1.99528C1.47226 -0.00402035 0.968251 0.195996 0.594071 0.557922C0.219888 0.919847 0.0061392 1.41407 -0.000244141 1.93199V24.8456C0.00592073 25.3638 0.219544 25.8583 0.593713 26.2207C0.967882 26.583 1.472 26.7834 1.99528 26.7778H25.0393C25.5636 26.7843 26.0692 26.5844 26.4448 26.2222C26.8203 25.8599 27.0354 25.3648 27.0428 24.8456V1.93034C27.0352 1.41139 26.8199 0.916604 26.4445 0.554687C26.0688 0.192771 25.5634 -0.00667378 25.0393 0.000170511" fill="#040404"/>
<path d="M30.1199 23.3154C29.6325 23.3201 29.1665 23.5157 28.8243 23.8596C28.482 24.2034 28.2913 24.6675 28.2936 25.1503C28.2961 25.6329 28.4913 26.0951 28.8368 26.4356C29.1824 26.7763 29.6501 26.9674 30.1377 26.9674C30.6252 26.9674 31.0927 26.7763 31.4383 26.4356C31.7839 26.0951 31.9793 25.6329 31.9816 25.1503C31.984 24.6675 31.7932 24.2034 31.451 23.8596C31.1087 23.5157 30.6429 23.3201 30.1553 23.3154H30.1199ZM30.1199 26.7583C29.8001 26.7637 29.4859 26.6749 29.2172 26.5033C28.9484 26.3319 28.7369 26.0852 28.6096 25.7947C28.4824 25.5041 28.4449 25.1827 28.5021 24.8713C28.5593 24.5597 28.7085 24.2719 28.9308 24.0442C29.1531 23.8166 29.4386 23.6593 29.7512 23.5924C30.0638 23.5254 30.3893 23.5519 30.6868 23.6681C30.9843 23.7844 31.2403 23.9856 31.4222 24.2458C31.6044 24.5062 31.7043 24.8141 31.7096 25.1308C31.7096 25.1398 31.7096 25.1486 31.7096 25.1576C31.7187 25.5729 31.5606 25.9749 31.2704 26.2749C30.9803 26.5749 30.5815 26.7486 30.1621 26.7576H30.1203" fill="#040404"/>
</g>
</svg>
