<svg width="27" height="27" viewBox="0 0 27 27" fill="none" xmlns="http://www.w3.org/2000/svg">
<path d="M13.5 27C20.9559 27 27 20.9559 27 13.5C27 6.04416 20.9559 0 13.5 0C6.04416 0 0 6.04416 0 13.5C0 20.9559 6.04416 27 13.5 27Z" fill="#040404"/>
<path d="M22.5047 13.4999C22.4908 13.1199 22.3672 12.752 22.149 12.4406C21.9307 12.1292 21.627 11.8876 21.2745 11.7449C20.9222 11.6022 20.5359 11.5645 20.1624 11.6364C19.7891 11.7082 19.4445 11.8866 19.1702 12.1499C17.6344 11.1059 15.8291 10.5292 13.9726 10.4894L14.8501 6.27736L17.7391 6.88486C17.7735 7.20412 17.9205 7.50067 18.1537 7.7213C18.387 7.94193 18.6913 8.07218 19.0119 8.08868C19.3327 8.10518 19.6487 8.00684 19.9035 7.81132C20.1581 7.61579 20.3347 7.33589 20.4017 7.02185C20.4686 6.7078 20.4214 6.3802 20.2686 6.09783C20.1157 5.81543 19.8673 5.59679 19.5677 5.48112C19.2682 5.36543 18.9373 5.36032 18.6343 5.46667C18.3313 5.573 18.0761 5.78386 17.9146 6.06136L14.6071 5.39986C14.553 5.38799 14.4971 5.38698 14.4426 5.39688C14.3881 5.40678 14.3362 5.4274 14.2897 5.45753C14.2432 5.48767 14.2032 5.52674 14.172 5.57245C14.1407 5.61817 14.1188 5.66963 14.1076 5.72386L13.1086 10.4084C11.2293 10.4367 9.39918 11.0139 7.84361 12.0689C7.6355 11.8731 7.38729 11.7248 7.1162 11.6345C6.84511 11.5441 6.5576 11.5138 6.27363 11.5456C5.98965 11.5774 5.71599 11.6706 5.47158 11.8186C5.2272 11.9667 5.01793 12.1662 4.85827 12.4032C4.69863 12.6402 4.59241 12.909 4.54702 13.1911C4.50161 13.4733 4.51809 13.7619 4.5953 14.037C4.67253 14.3121 4.80866 14.5672 4.99425 14.7845C5.17983 15.0017 5.41046 15.1761 5.67011 15.2954C5.6549 15.4931 5.6549 15.6917 5.67011 15.8894C5.67011 18.9134 9.19361 21.3704 13.5406 21.3704C17.8876 21.3704 21.4112 18.9134 21.4112 15.8894C21.4264 15.6917 21.4264 15.4931 21.4112 15.2954C21.7442 15.1298 22.0237 14.8733 22.2172 14.5556C22.4107 14.2378 22.5103 13.8718 22.5047 13.4999ZM9.00461 14.8499C9.00461 14.5829 9.08379 14.3218 9.23212 14.0998C9.38047 13.8778 9.59131 13.7048 9.83799 13.6026C10.0847 13.5004 10.3561 13.4737 10.618 13.5258C10.8799 13.5779 11.1204 13.7065 11.3092 13.8953C11.498 14.0841 11.6266 14.3246 11.6787 14.5865C11.7308 14.8484 11.704 15.1198 11.6018 15.3665C11.4997 15.6132 11.3266 15.824 11.1046 15.9723C10.8826 16.1207 10.6216 16.1999 10.3546 16.1999C10.1773 16.1999 10.0018 16.1649 9.83799 16.0971C9.67419 16.0293 9.52537 15.9298 9.40001 15.8045C9.27466 15.6791 9.17521 15.5303 9.10738 15.3665C9.03952 15.2027 9.00461 15.0271 9.00461 14.8499ZM16.8481 18.5624C15.8903 19.2842 14.7119 19.6515 13.5136 19.6019C12.3153 19.6515 11.1369 19.2842 10.1791 18.5624C10.1217 18.4924 10.0924 18.4036 10.0968 18.3132C10.1012 18.2229 10.1391 18.1374 10.2031 18.0734C10.2671 18.0094 10.3526 17.9715 10.443 17.9671C10.5334 17.9626 10.6222 17.9919 10.6921 18.0494C11.5038 18.6447 12.4945 18.9449 13.5001 18.8999C14.5069 18.9546 15.5023 18.6641 16.3216 18.0764C16.3932 18.0066 16.4896 17.968 16.5896 17.9693C16.6391 17.9699 16.6881 17.9803 16.7336 17.9998C16.7791 18.0194 16.8203 18.0477 16.8549 18.0831C16.8894 18.1186 16.9167 18.1605 16.9351 18.2065C16.9534 18.2525 16.9626 18.3016 16.9619 18.3511C16.9613 18.4007 16.9509 18.4496 16.9314 18.4951C16.9119 18.5406 16.8836 18.5818 16.8481 18.6164V18.5624ZM16.6051 16.2539C16.3381 16.2539 16.0771 16.1747 15.8551 16.0263C15.6331 15.878 15.46 15.6672 15.3579 15.4205C15.2557 15.1738 15.229 14.9024 15.2811 14.6405C15.3331 14.3786 15.4617 14.1381 15.6505 13.9493C15.8393 13.7605 16.0799 13.6319 16.3417 13.5798C16.6036 13.5277 16.8751 13.5544 17.1217 13.6566C17.3684 13.7588 17.5792 13.9318 17.7276 14.1538C17.8759 14.3758 17.9551 14.6369 17.9551 14.9039C17.9624 15.0868 17.9325 15.2693 17.8671 15.4403C17.8017 15.6112 17.7022 15.7671 17.5747 15.8985C17.4471 16.0298 17.2942 16.1338 17.1252 16.2042C16.9562 16.2746 16.7747 16.3098 16.5916 16.3079L16.6051 16.2539Z" fill="white"/>
</svg>
