<svg width="33" height="27" viewBox="0 0 33 27" fill="none" xmlns="http://www.w3.org/2000/svg">
<path d="M29.3758 6.78844C29.3957 7.07566 29.3956 7.36285 29.3956 7.6527C29.3956 16.4846 22.6721 26.6704 10.3778 26.6704V26.6652C6.74601 26.6704 3.18967 25.6302 0.132324 23.6687C0.660412 23.7323 1.19115 23.764 1.72321 23.7653C4.73291 23.7679 7.65658 22.7581 10.0244 20.8986C7.16424 20.8442 4.65615 18.9796 3.77996 16.257C4.78189 16.4502 5.81424 16.4105 6.79762 16.1418C3.67939 15.5118 1.436 12.7721 1.436 9.59035C1.436 9.56123 1.436 9.53344 1.436 9.50565C2.36512 10.0232 3.40541 10.3103 4.46953 10.3421C1.53262 8.37932 0.627324 4.47227 2.40086 1.41756C5.79439 5.5933 10.8013 8.13182 16.1761 8.40051C15.6375 6.07904 16.3734 3.64639 18.1098 2.01447C20.802 -0.516115 25.0359 -0.38641 27.5664 2.30432C29.0634 2.00918 30.4981 1.45991 31.811 0.681678C31.3121 2.22889 30.2677 3.54315 28.8727 4.3783C30.1976 4.22211 31.4921 3.86742 32.711 3.32609C31.8136 4.6708 30.6834 5.84211 29.3758 6.78844Z" fill="#040404"/>
</svg>
